# xmcd
#
# Track frame offsets:
#	150
#	18900
#	34745
#	53570
#	72450
#	89067
#	108795
#	125700
#	143482
#	161760
#
# Disc length: 2466 seconds
#
# Revision: 5
# Processed by: cddbd v1.5.1PL2 Copyright (c) Steve Scherf et al.
# Submitted via: MusicWizard 7.2.0
#
DISCID=8409a00a
DTITLE=Rogers, Kenny - A Decade Of Hits
DYEAR=1997
DGENRE=Rock - Pop
TTITLE0=Morning Desire
TTITLE1=The Vows Go Unbroken
TTITLE2=Buried Treasure
TTITLE3=Islands In The Stream
TTITLE4=Crazy
TTITLE5=What About Me
TTITLE6=Twenty Years Ago
TTITLE7=Make No Mistake, She's Mine
TTITLE8=Tomb Of The Unknown Love
TTITLE9=I Prefer The Moonlight
EXTD=
EXTT0=
EXTT1=
EXTT2=
EXTT3=
EXTT4=
EXTT5=
EXTT6=
EXTT7=
EXTT8=
EXTT9=
PLAYORDER=
